<?xml version="1.0" standalone="no"?>
<!DOCTYPE svg PUBLIC "-//W3C//DTD SVG 20010904//EN"
 "http://www.w3.org/TR/2001/REC-SVG-20010904/DTD/svg10.dtd">
<svg version="1.0" xmlns="http://www.w3.org/2000/svg"
 width="1200.000000pt" height="1200.000000pt" viewBox="0 0 1200.000000 1200.000000"
 preserveAspectRatio="xMidYMid meet">
<metadata>
Created by potrace 1.14, written by Peter Selinger 2001-2017
</metadata>
<g transform="translate(0.000000,1200.000000) scale(0.100000,-0.100000)"
fill="#000000" stroke="none">
<path d="M367 7764 c-1 -1 -24 -5 -52 -8 -113 -15 -227 -100 -280 -211 -26
-53 -29 -71 -30 -155 0 -82 4 -103 26 -151 49 -105 129 -172 249 -210 75 -23
97 -37 120 -75 27 -43 28 -54 29 -292 l1 -214 29 -29 c32 -31 71 -38 114 -18
47 21 54 52 54 217 0 142 2 156 25 200 33 64 89 102 161 109 95 9 167 -29 210
-111 21 -40 21 -51 23 -452 1 -288 5 -417 13 -432 24 -46 109 -63 148 -31 36
31 37 46 38 524 2 503 1 501 52 547 48 44 50 44 831 43 l742 -1 0 373 c0 291
-3 373 -12 374 -23 1 -2490 4 -2491 3z"/>
<path d="M2926 7441 c-2 -5 0 -81 3 -98 0 -5 50 -9 109 -9 127 -2 202 -20 276
-68 140 -90 218 -237 212 -398 -4 -107 -3 -106 -102 -106 -46 1 -86 -1 -88 -3
-1 -2 -24 -62 -50 -134 -60 -163 -65 -171 -115 -180 -44 -7 -219 -11 -225 -4
-4 6 -81 216 -96 264 -7 22 -16 44 -20 49 -7 7 -115 11 -196 7 -18 -1 -21 -11
-33 -133 -15 -154 -18 -178 -26 -186 -3 -3 -183 -5 -401 -5 -350 0 -398 -2
-415 -16 -20 -16 -20 -28 -20 -359 l0 -342 -77 0 -77 0 1 -317 c1 -175 2 -323
3 -328 1 -7 76 -10 206 -10 l205 0 0 60 c1 116 1 411 0 503 l0 92 -75 0 -75 0
2 303 3 302 357 1 358 2 -6 -52 c-3 -28 -7 -67 -9 -86 -5 -57 -16 -163 -20
-190 -1 -14 -6 -59 -10 -100 -3 -41 -8 -86 -10 -100 -2 -14 -6 -52 -10 -85
l-6 -60 96 1 c53 1 98 3 99 5 2 2 7 45 11 94 3 50 8 113 11 140 2 28 6 75 9
105 2 30 10 98 16 150 12 102 17 147 18 168 2 32 20 3 54 -90 21 -57 42 -112
47 -123 5 -11 18 -42 28 -70 11 -27 39 -98 61 -156 l42 -106 81 1 81 1 39 95
c22 52 42 102 44 110 17 50 153 373 154 365 1 -5 3 -19 5 -30 2 -11 7 -55 10
-99 4 -44 8 -83 10 -86 2 -3 6 -46 10 -95 4 -50 9 -103 10 -119 2 -16 7 -79
11 -140 3 -61 8 -113 10 -115 3 -3 138 -5 186 -2 12 1 15 8 13 29 -3 25 -9 84
-20 207 -8 88 -15 159 -20 200 -3 22 -7 67 -10 100 -3 33 -8 78 -10 100 -3 22
-7 65 -10 95 -2 30 -7 87 -11 125 -3 39 -8 73 -10 76 -2 4 8 32 21 62 53 115
65 271 31 387 -60 202 -240 365 -437 395 -57 9 -249 13 -253 6z m239 -1129
c-4 -9 -22 -57 -41 -106 -19 -48 -37 -93 -41 -99 -5 -8 -64 127 -88 204 -5 16
3 17 86 18 83 1 90 -1 84 -17z"/>
<path d="M4079 6744 c-157 -50 -272 -191 -306 -375 -15 -83 -8 -309 11 -374
40 -137 102 -225 199 -283 73 -44 144 -62 247 -62 98 0 177 18 268 60 57 27
62 31 62 62 1 18 3 58 6 89 6 55 6 56 -26 69 -27 11 -36 11 -54 0 -129 -83
-230 -103 -333 -69 -63 20 -129 94 -148 164 -4 17 -10 37 -13 45 -9 33 -11
238 -1 280 13 58 43 121 74 154 84 91 248 94 370 7 43 -31 88 -38 104 -16 12
15 42 165 36 176 -13 20 -94 59 -165 79 -103 28 -230 26 -331 -6z"/>
<path d="M5008 6764 c-2 -1 -15 -5 -28 -8 -162 -31 -287 -161 -338 -350 -17
-65 -23 -298 -9 -369 37 -190 149 -322 316 -373 58 -18 208 -17 284 0 85 21
187 71 187 93 1 10 3 50 6 89 l6 71 -32 13 c-27 11 -36 11 -54 0 -104 -67
-175 -89 -257 -83 -56 5 -120 29 -154 60 -58 51 -91 155 -94 293 -4 187 50
310 159 356 87 38 222 16 300 -48 37 -30 67 -35 92 -15 17 12 52 162 42 178
-12 20 -94 59 -164 79 -54 15 -100 20 -167 19 -51 -1 -94 -3 -95 -5z"/>
<path d="M5573 6211 l2 -555 91 1 c51 0 98 2 106 5 12 5 13 38 10 191 l-4 185
60 0 59 0 38 -67 c94 -164 192 -311 213 -321 17 -7 41 -6 90 5 82 19 90 23 96
58 4 21 -6 41 -42 89 -25 35 -81 115 -124 178 l-79 115 23 18 c61 48 101 95
131 156 30 61 32 73 32 166 0 90 -3 105 -28 152 -36 69 -54 90 -102 118 -80
47 -140 56 -364 58 l-209 2 1 -554z m427 334 c38 -20 60 -67 60 -132 0 -60
-24 -108 -72 -146 -34 -27 -46 -30 -122 -34 l-85 -3 3 167 c2 93 4 170 5 172
3 11 183 -9 211 -24z"/>
<path d="M6758 6762 c-9 -2 -18 -13 -21 -25 -2 -12 -92 -259 -199 -549 -107
-291 -192 -528 -189 -529 8 -1 149 -1 187 0 31 1 32 2 52 84 11 45 30 107 41
138 l21 56 187 -1 186 -1 19 -55 c10 -30 28 -92 40 -137 17 -71 24 -83 42 -84
101 -4 189 -3 193 4 2 4 -78 254 -178 555 l-182 547 -92 0 c-50 0 -99 -1 -107
-3z m146 -470 c30 -89 51 -164 48 -166 -9 -5 -215 -5 -224 1 -4 2 -3 12 2 21
5 9 32 83 61 164 30 81 55 146 56 144 2 -2 28 -76 57 -164z"/>
<path d="M7667 6751 c-142 -39 -246 -143 -303 -304 -23 -64 -29 -125 -28 -267
1 -116 5 -146 26 -212 42 -128 100 -203 202 -263 135 -79 350 -74 519 11 41
21 47 28 47 57 1 17 3 57 6 88 l6 57 -37 12 c-33 11 -40 10 -64 -7 -140 -104
-317 -103 -409 3 -59 67 -77 133 -77 289 0 112 3 138 24 192 42 113 118 167
236 167 76 0 137 -21 198 -68 46 -35 97 -34 105 3 38 180 41 166 -43 206 -119
56 -280 70 -408 36z"/>
<path d="M8284 6755 c-1 -5 -2 -255 -1 -554 l2 -544 103 -1 c84 -1 102 2 103
14 0 8 0 116 -1 239 l-1 225 58 -75 c136 -175 330 -401 352 -411 20 -8 70 -1
137 18 49 14 51 16 50 48 -1 26 -17 50 -83 122 -118 128 -133 146 -244 282
l-100 122 53 62 c29 35 58 67 64 73 6 5 64 73 130 150 65 77 124 146 131 153
9 10 10 19 1 40 -18 42 -20 43 -97 45 -79 3 -101 -6 -130 -54 -17 -27 -311
-369 -317 -369 -2 0 -2 95 -1 210 3 184 1 210 -12 211 -98 5 -194 2 -197 -6z"/>
<path d="M9209 6760 l-25 -5 2 -165 c4 -301 3 -804 -1 -867 -5 -60 -4 -63 18
-64 100 -3 629 -1 633 3 3 3 7 32 10 64 3 33 6 64 8 70 2 5 -4 21 -13 33 -17
23 -21 23 -231 24 l-213 2 -2 125 c-1 69 0 130 2 137 4 9 42 12 136 12 73 -1
151 0 174 0 l41 1 7 53 c4 28 8 64 11 78 2 17 -3 32 -16 44 -17 16 -40 18
-182 18 -123 0 -164 4 -168 13 -3 7 -4 62 -2 122 l3 109 217 2 c119 1 217 3
219 5 2 2 6 36 9 77 9 119 30 111 -317 113 -163 0 -306 -1 -320 -4z"/>
<path d="M10013 6762 l-23 -3 -1 -492 c-1 -271 -2 -518 -3 -549 -1 -52 1 -58
19 -59 24 -1 156 -1 171 0 9 1 12 93 10 347 0 190 1 350 4 354 3 4 108 -151
235 -346 132 -204 236 -354 245 -355 21 -1 108 -1 150 0 l35 1 2 555 3 556
-77 -7 c-43 -4 -89 -10 -103 -14 l-25 -6 1 -352 c0 -194 -1 -352 -2 -352 -1 0
-11 15 -22 33 -31 52 -419 650 -434 670 -10 14 -30 18 -88 20 -41 1 -85 1 -97
-1z"/>
<path d="M10398 5626 c-1 -2 -32 -6 -68 -9 -274 -25 -472 -181 -550 -435 -11
-36 -24 -86 -27 -111 -10 -59 -10 -334 -1 -386 41 -234 161 -395 348 -466 60
-23 69 -25 158 -37 82 -11 234 -5 337 14 36 6 131 30 202 50 l52 15 -2 280 -2
279 -95 -6 c-52 -4 -106 -7 -119 -8 l-25 -2 0 -179 -1 -180 -38 -12 c-79 -26
-221 -35 -307 -20 -81 15 -165 79 -204 157 -59 117 -75 319 -40 515 10 55 56
154 93 197 29 36 93 74 157 93 51 16 222 19 259 5 84 -33 134 -56 168 -77 42
-26 86 -36 107 -23 15 10 43 107 34 121 -3 5 -1 9 3 9 5 0 10 15 11 33 1 17 5
40 8 49 4 13 -10 24 -58 47 -57 26 -136 53 -199 67 -13 3 -58 7 -99 10 -41 3
-80 7 -87 9 -6 2 -13 2 -15 1z"/>
<path d="M2548 5612 l-36 -3 1 -710 c1 -390 4 -709 7 -710 3 -1 56 -2 118 -3
129 -2 132 0 125 74 -6 78 -9 380 -3 388 3 4 49 8 102 9 337 8 538 199 539
514 1 257 -148 419 -401 436 -81 5 -402 9 -452 5z m505 -256 c24 -12 47 -35
65 -64 22 -39 26 -58 26 -122 0 -136 -51 -225 -153 -267 -42 -18 -229 -24
-234 -8 -2 9 0 229 4 423 l2 62 126 -3 c98 -2 135 -7 164 -21z"/>
<path d="M3860 5605 c-8 -10 -178 -471 -242 -655 -16 -47 -36 -103 -45 -125
-8 -22 -19 -49 -23 -60 -5 -11 -34 -92 -65 -180 -31 -88 -62 -176 -70 -195
-46 -117 -72 -200 -61 -201 61 -6 232 -2 242 6 7 5 15 21 18 35 11 63 38 163
46 178 6 9 19 43 31 74 l20 57 202 3 c111 2 225 2 253 0 l51 -3 37 -117 c20
-64 41 -143 48 -174 6 -32 14 -59 17 -59 3 -1 63 -2 132 -3 l126 -1 -13 45
c-7 25 -70 216 -139 425 -69 209 -166 504 -215 655 -50 151 -94 281 -98 288
-10 16 -239 22 -252 7z m200 -585 c40 -124 73 -229 74 -235 1 -11 -322 -16
-329 -5 -3 4 8 40 24 81 15 41 54 147 86 237 32 90 61 160 65 155 4 -4 40
-109 80 -233z"/>
<path d="M4768 5610 c0 -3 -2 -323 -2 -712 -1 -464 2 -709 9 -711 8 -3 219 -1
236 2 3 1 4 25 2 54 -4 61 -4 935 1 1179 2 92 0 171 -3 177 -7 10 -240 21
-243 11z"/>
<path d="M5364 5608 c-3 -4 -4 -254 -3 -555 1 -301 1 -609 0 -683 -1 -74 -2
-146 -2 -160 l1 -25 109 0 c60 0 112 3 116 7 3 3 6 218 5 477 0 259 3 471 8
471 5 0 44 -55 87 -122 44 -68 111 -172 150 -233 40 -60 141 -218 225 -350 84
-132 155 -242 157 -244 5 -7 222 -8 232 -1 4 3 8 167 9 365 0 198 2 519 5 713
l4 352 -46 -5 c-25 -3 -66 -8 -91 -11 -58 -6 -88 -11 -98 -17 -4 -3 -7 -215
-7 -472 1 -256 -2 -468 -5 -470 -4 -3 -327 495 -455 703 -135 218 -167 262
-194 263 -155 4 -204 3 -207 -3z"/>
<path d="M6667 5612 c-9 -2 -18 -13 -18 -25 -4 -62 -8 -105 -14 -129 -4 -19 1
-34 17 -53 23 -26 23 -26 193 -28 l169 -2 4 -240 c5 -378 5 -576 -1 -767 -3
-98 -3 -178 1 -179 45 -7 242 -2 245 6 2 5 2 62 1 125 -5 219 -2 938 5 1043 1
15 16 17 175 17 96 0 177 4 180 8 3 5 8 46 12 93 5 74 4 87 -13 108 l-19 24
-460 1 c-253 0 -468 0 -477 -2z"/>
<path d="M9488 5615 c-1 -2 -30 -6 -63 -10 -33 -3 -69 -8 -80 -9 -11 -2 -26
-4 -33 -5 -10 -1 -12 -96 -10 -468 1 -290 -2 -469 -8 -470 -5 -1 -27 27 -49
62 -22 36 -159 252 -305 480 l-265 415 -117 0 c-65 0 -118 -3 -119 -7 0 -5 -1
-324 -2 -710 -1 -461 1 -704 8 -706 9 -3 159 -2 207 2 15 1 17 37 16 476 -1
261 1 478 4 480 3 3 59 -78 124 -180 66 -102 165 -256 221 -343 56 -86 108
-167 115 -179 35 -61 162 -253 167 -254 24 -4 231 -4 232 1 0 3 2 282 5 620 3
338 6 658 6 710 l1 95 -25 2 c-14 1 -28 0 -30 -2z"/>
<path d="M7839 5598 c-1 -7 0 -123 1 -258 4 -443 3 -873 0 -1007 -3 -73 -1
-135 3 -140 13 -13 228 -10 242 3 7 8 9 31 5 70 -6 50 -5 885 1 1224 l2 115
-126 3 c-98 2 -127 0 -128 -10z"/>
<path d="M1587 4940 c-1 -8 -3 -44 -2 -80 l0 -65 207 -3 206 -2 4 76 c2 43 -1
79 -7 82 -5 4 -99 7 -207 7 -167 0 -198 -2 -201 -15z"/>
<path d="M1588 4668 c-2 -7 -4 -44 -3 -83 l0 -70 207 -2 206 -1 4 61 c6 118
27 107 -207 107 -153 0 -204 -3 -207 -12z"/>
<path d="M1603 4400 c-15 -4 -18 -16 -18 -77 0 -39 3 -75 7 -79 4 -4 98 -7
208 -8 l200 -1 0 85 0 85 -189 0 c-105 0 -198 -2 -208 -5z"/>
<path d="M887 4092 l-88 -3 3 -97 3 -97 5238 0 5237 0 0 98 0 97 -67 0 c-976
2 -10264 4 -10326 2z"/>
<path d="M1975 3682 c-3 -3 -5 -95 -5 -204 0 -197 0 -199 21 -196 20 3 21 8
21 193 0 105 0 195 -1 201 -1 11 -27 15 -36 6z"/>
<path d="M3979 3682 c-12 -5 -16 -21 -15 -72 l1 -65 -59 -1 c-53 0 -62 -3 -87
-32 -27 -30 -32 -48 -32 -114 1 -46 23 -86 58 -102 43 -21 67 -20 97 3 24 19
24 19 36 0 13 -20 62 -27 62 -9 0 19 -5 25 -17 22 -16 -4 -16 1 -14 211 0 92
-2 167 -6 166 -5 0 -15 -3 -24 -7z m-33 -176 c18 -13 21 -24 19 -87 -1 -62 -5
-74 -24 -90 -29 -24 -49 -24 -80 0 -19 14 -25 30 -29 73 -6 78 15 108 83 117
6 0 20 -6 31 -13z"/>
<path d="M4938 3617 l-3 -69 -52 -2 c-45 -1 -58 -6 -85 -33 -25 -26 -32 -41
-35 -85 -5 -71 18 -117 70 -137 34 -13 42 -12 73 3 32 15 37 15 51 1 8 -9 25
-15 37 -13 26 4 35 37 9 34 -17 -1 -18 12 -18 183 -1 182 -1 184 -22 186 -21
1 -22 -4 -25 -68z m-8 -112 c17 -10 12 -151 -5 -169 -27 -26 -56 -29 -83 -9
-73 54 -36 198 48 188 17 -2 35 -7 40 -10z"/>
<path d="M7201 3676 c-5 -6 -8 -37 -7 -68 l1 -58 -38 0 c-51 0 -102 -23 -123
-55 -24 -37 -23 -122 2 -163 26 -45 84 -63 126 -39 27 15 32 15 51 2 24 -17
57 -20 57 -5 0 22 -2 25 -16 22 -17 -3 -17 -8 -16 204 1 144 -1 171 -14 171
-8 0 -18 -5 -23 -11z m-12 -171 c2 -3 5 -37 6 -77 2 -63 0 -74 -21 -95 -17
-17 -31 -22 -51 -19 -40 8 -55 29 -61 86 -8 83 26 124 93 114 16 -3 31 -7 34
-9z"/>
<path d="M1826 3644 c-4 -10 -2 -22 3 -27 14 -14 43 0 39 20 -4 24 -34 28 -42
7z"/>
<path d="M855 3465 c0 -184 0 -185 22 -185 21 0 22 5 25 83 l3 82 48 1 c54 2
77 9 77 24 0 6 -27 10 -65 10 l-65 0 0 65 0 65 74 0 c54 0 75 4 79 14 9 23 -2
26 -103 26 l-96 0 1 -185z"/>
<path d="M2542 3643 c-37 -7 -90 -69 -97 -116 -18 -103 3 -179 59 -221 39 -30
143 -30 182 0 44 32 63 65 72 124 23 156 -64 242 -216 213z m124 -44 c43 -35
59 -138 34 -213 -33 -101 -186 -95 -205 8 -22 114 0 193 60 216 28 10 93 4
111 -11z"/>
<path d="M5270 3641 c-34 -8 -61 -30 -85 -66 -16 -24 -20 -47 -20 -110 0 -127
41 -178 145 -181 108 -4 172 63 173 180 1 139 -84 210 -213 177z m132 -60 c16
-17 29 -42 29 -56 1 -14 2 -40 3 -57 5 -89 -35 -148 -101 -153 -84 -6 -126 46
-122 153 2 81 20 119 62 137 49 20 97 11 129 -24z"/>
<path d="M7449 3633 c0 -15 0 -294 1 -340 0 -7 9 -13 20 -13 21 0 24 15 20
121 l-1 46 43 0 c79 1 88 3 88 18 0 12 -14 15 -64 15 l-64 0 0 65 0 64 77 3
c63 3 76 6 79 21 3 15 -7 17 -97 17 -89 0 -101 -2 -102 -17z"/>
<path d="M8298 3628 c-56 -32 -82 -94 -76 -180 9 -119 64 -173 169 -165 74 6
113 35 138 101 33 89 10 195 -52 240 -41 30 -130 32 -179 4z m164 -47 c16 -17
29 -44 29 -59 1 -15 2 -40 3 -57 6 -86 -35 -144 -105 -150 -80 -6 -119 43
-119 150 0 79 19 121 63 140 49 20 97 11 129 -24z"/>
<path d="M10000 3645 c0 -3 25 -57 55 -120 49 -102 55 -121 55 -179 0 -62 1
-66 23 -66 22 0 23 4 22 66 -1 61 2 71 56 170 74 135 73 134 46 134 -16 0 -27
-10 -38 -32 -8 -18 -30 -62 -49 -96 l-35 -64 -45 96 c-37 78 -49 95 -67 95
-13 1 -23 -1 -23 -4z"/>
<path d="M6610 3600 c-8 -5 -16 -14 -16 -20 -1 -5 -2 -14 -3 -19 0 -5 -10 -11
-21 -14 -13 -3 -18 -11 -14 -20 3 -9 12 -13 20 -10 16 6 17 3 16 -97 -1 -90
11 -126 45 -135 28 -7 64 2 75 18 11 18 -2 28 -21 18 -12 -7 -24 -6 -38 4 -19
13 -21 24 -19 102 l2 88 29 1 c52 3 55 4 55 19 0 11 -11 15 -40 15 -38 0 -45
6 -41 37 2 17 -13 23 -29 13z"/>
<path d="M9443 3553 c-23 -12 -33 -24 -33 -40 l0 -23 33 20 c38 24 70 26 87 5
20 -24 4 -57 -65 -135 -36 -41 -65 -80 -65 -88 0 -20 214 -13 218 8 2 13 -10
15 -73 13 -41 -1 -75 2 -75 6 0 6 64 87 80 101 3 3 14 21 23 42 39 83 -38 136
-130 91z"/>
<path d="M9689 3563 c-1 -5 -2 -43 -4 -85 -2 -70 0 -78 16 -79 22 -2 25 -2 60
-12 32 -8 54 -47 45 -82 -9 -37 -68 -61 -114 -47 -31 10 -33 9 -30 -11 7 -47
138 -26 174 28 23 35 24 82 3 109 -19 24 -102 59 -113 48 -3 -3 -6 18 -6 47
l0 52 53 -1 c79 -3 83 -2 84 20 2 19 -4 20 -83 20 -46 0 -85 -3 -85 -7z"/>
<path d="M1110 3531 c-19 -10 -34 -21 -32 -25 1 -3 2 -11 2 -17 0 -7 8 -6 23
3 34 23 72 29 89 15 18 -14 29 -50 19 -64 -5 -8 -58 -26 -109 -37 -40 -8 -48
-79 -11 -108 28 -23 54 -23 88 1 27 20 28 20 45 0 10 -12 24 -18 32 -15 9 3
20 6 25 6 5 0 9 7 9 15 0 8 -9 15 -20 15 -20 0 -21 5 -19 96 3 90 1 98 -20
115 -30 24 -77 24 -121 0z m100 -151 c0 -21 -36 -60 -56 -60 -50 0 -62 52 -16
68 46 17 72 14 72 -8z"/>
<path d="M1357 3542 c-2 -4 -4 -64 -5 -134 -1 -127 -1 -128 22 -128 22 0 23 2
21 95 -1 87 0 96 22 117 26 24 80 29 93 7 5 -7 8 -59 7 -114 -2 -97 -1 -100
21 -103 25 -4 24 -9 22 109 l-1 87 33 20 c19 12 41 20 51 18 35 -5 41 -23 39
-132 -2 -104 -1 -105 21 -102 21 3 22 7 22 107 0 57 -4 113 -10 125 -6 12 -26
25 -47 30 -30 8 -43 5 -74 -13 -20 -12 -40 -18 -43 -13 -23 35 -105 38 -132 6
-12 -14 -14 -14 -19 2 -6 17 -37 28 -43 16z"/>
<path d="M1840 3542 c-12 -6 -15 -31 -15 -135 0 -125 0 -127 23 -127 22 0 22
2 22 135 0 74 -3 135 -7 134 -5 0 -15 -3 -23 -7z"/>
<path d="M2070 3548 c0 -2 22 -61 49 -133 49 -130 49 -130 30 -156 -10 -15
-33 -32 -51 -39 -42 -17 -39 -15 -32 -33 5 -13 11 -14 40 -4 63 22 86 55 142
208 29 79 52 147 52 152 0 4 -8 7 -17 7 -14 0 -26 -26 -53 -105 -19 -58 -38
-101 -42 -97 -5 5 -24 51 -42 103 -27 75 -38 95 -55 97 -11 2 -21 2 -21 0z"/>
<path d="M2804 3533 c5 -17 35 -128 58 -215 8 -30 15 -38 33 -38 21 0 27 12
57 107 l33 106 29 -106 c26 -93 32 -107 51 -107 18 0 27 18 63 128 23 70 42
131 42 135 0 4 -8 7 -18 7 -18 0 -19 -2 -62 -148 -12 -41 -23 -72 -24 -70 -4
4 -47 176 -51 198 -1 8 -13 16 -26 18 -22 3 -26 -4 -53 -98 -26 -92 -45 -131
-47 -98 -1 15 -3 24 -25 103 -9 33 -17 67 -19 75 -1 8 -12 16 -24 18 -18 3
-22 0 -17 -15z"/>
<path d="M3235 3540 c-1 -3 -3 -62 -3 -132 0 -125 1 -128 23 -128 21 0 22 3
20 95 -2 84 0 96 19 114 12 11 33 22 48 26 45 11 59 -23 56 -139 -3 -96 -3
-97 20 -94 12 2 22 6 22 11 0 4 0 52 0 107 0 95 -2 102 -26 127 -21 21 -32 24
-61 20 -20 -4 -44 -14 -54 -23 -18 -16 -24 -11 -20 18 1 8 -39 6 -44 -2z"/>
<path d="M3573 3530 c-37 -22 -61 -71 -58 -115 2 -17 3 -38 4 -47 1 -9 12 -30
26 -47 44 -51 166 -53 173 -2 3 22 3 22 -27 6 -63 -32 -131 6 -131 75 0 18 7
20 85 20 l85 0 0 39 c0 76 -86 115 -157 71z m102 -30 c8 -7 15 -21 15 -31 0
-17 -7 -19 -65 -17 -36 1 -65 6 -65 11 0 4 11 19 24 32 25 25 64 28 91 5z"/>
<path d="M4233 3534 c-20 -10 -33 -24 -33 -35 0 -18 1 -18 38 1 20 10 46 17
57 15 11 -2 23 -4 26 -4 9 -1 18 -52 12 -68 -3 -7 -21 -15 -41 -19 -21 -3 -52
-13 -69 -21 -26 -12 -33 -21 -33 -45 0 -43 16 -65 51 -73 23 -5 38 -2 59 13
l27 20 20 -20 c14 -14 27 -18 42 -13 27 8 27 31 1 38 -19 5 -20 11 -15 92 4
81 3 88 -20 111 -28 28 -74 31 -122 8z m100 -159 c-11 -55 -103 -73 -103 -20
0 19 7 27 33 34 59 17 75 14 70 -14z"/>
<path d="M4485 3544 c-8 -3 -12 -183 -6 -256 1 -5 10 -8 21 -8 22 0 22 3 20
126 -1 65 1 72 23 87 14 9 37 18 51 21 42 8 51 -15 49 -130 -2 -102 -1 -104
21 -104 22 0 23 2 22 108 -1 65 -6 116 -14 129 -19 33 -73 40 -117 14 -34 -20
-35 -20 -35 -1 0 19 -12 24 -35 14z"/>
<path d="M5565 3544 c-6 -2 -10 -73 -9 -187 l1 -182 24 -3 c23 -3 24 -1 21 55
l-4 59 40 -4 c24 -2 54 3 75 13 86 40 89 211 5 246 -30 12 -35 12 -100 -16
-13 -5 -18 -2 -18 9 0 15 -14 19 -35 10z m136 -34 c18 0 36 -56 33 -104 -4
-57 -27 -87 -70 -92 -54 -5 -64 9 -64 90 0 57 4 76 18 88 22 20 44 28 60 22 8
-2 18 -4 23 -4z"/>
<path d="M5883 3523 c-71 -64 -62 -188 18 -231 32 -17 120 -8 136 14 15 21 6
39 -12 24 -19 -16 -88 -20 -106 -7 -21 16 -39 51 -39 76 0 20 6 21 85 21 l85
0 0 38 c-1 41 -13 63 -47 80 -38 21 -86 14 -120 -15z m105 -19 c12 -8 22 -24
22 -35 0 -18 -6 -20 -65 -18 -36 1 -65 4 -65 6 0 15 25 46 43 53 32 13 40 12
65 -6z"/>
<path d="M6130 3414 c0 -133 0 -135 22 -132 20 3 21 9 22 90 1 77 4 89 25 112
14 14 35 26 47 26 21 0 27 20 12 36 -10 10 -47 -6 -68 -29 l-20 -21 0 27 c0
20 -5 27 -20 27 -19 0 -20 -7 -20 -136z"/>
<path d="M6340 3532 c-32 -15 -36 -22 -31 -48 0 -4 13 2 28 11 60 40 103 24
103 -38 0 -22 -6 -26 -42 -32 -91 -15 -128 -58 -94 -110 24 -36 59 -41 100
-16 l35 22 11 -21 c14 -26 46 -26 60 0 9 17 8 20 -10 20 -11 0 -20 6 -21 13
-2 20 -2 59 1 102 3 64 1 74 -20 95 -25 25 -72 26 -120 2z m100 -155 c0 -23
-43 -57 -74 -57 -13 0 -36 28 -36 45 0 9 62 34 88 35 16 0 22 -6 22 -23z"/>
<path d="M6811 3537 c-65 -33 -89 -137 -47 -199 30 -46 62 -60 119 -54 58 6
67 11 67 38 0 17 -3 18 -14 8 -8 -6 -34 -13 -57 -15 -34 -3 -46 1 -64 21 -13
14 -25 38 -27 54 l-5 30 90 0 90 0 -6 42 c-10 74 -79 110 -146 75z m97 -45
c21 -27 8 -37 -56 -40 -66 -3 -68 -2 -51 29 21 39 80 45 107 11z"/>
<path d="M7721 3537 c-84 -43 -94 -191 -17 -238 61 -37 144 -14 169 49 18 45
14 122 -7 154 -29 45 -95 61 -145 35z m102 -48 c31 -39 27 -126 -8 -157 -57
-49 -117 -4 -117 89 0 45 4 56 26 76 32 28 72 24 99 -8z"/>
<path d="M7960 3533 c-1 -32 -2 -228 -1 -240 1 -7 11 -13 24 -13 21 0 22 3 19
71 -2 39 -1 81 2 93 8 32 44 66 71 66 16 0 23 5 21 18 -4 26 -39 26 -69 -2
l-27 -25 0 24 c0 18 -5 25 -20 25 -12 0 -20 -7 -20 -17z"/>
<path d="M8590 3543 c0 -5 16 -65 37 -135 36 -120 40 -128 63 -128 26 0 32 13
118 258 2 7 -4 12 -15 12 -15 0 -26 -20 -52 -97 -19 -54 -37 -104 -41 -112 -5
-9 -19 24 -39 87 -17 55 -31 105 -31 111 0 12 -40 16 -40 4z"/>
<path d="M8898 3534 c-75 -40 -80 -196 -7 -235 53 -28 132 -21 150 13 10 19 9
20 -17 14 -86 -21 -130 -2 -140 62 l-5 32 85 0 c96 0 97 1 81 77 -10 46 -93
67 -147 37z m104 -37 c4 -7 8 -20 8 -29 0 -15 -9 -18 -59 -18 -64 0 -76 6 -58
31 27 36 90 45 109 16z"/>
<path d="M9137 3543 c-2 -5 -5 -65 -5 -135 -1 -128 -1 -128 23 -128 22 0 23 2
20 81 -2 68 1 85 19 112 14 20 32 33 49 35 19 2 27 9 27 23 0 25 -30 25 -63
-1 -14 -11 -28 -20 -31 -20 -2 0 -3 9 -1 20 3 14 -2 20 -15 20 -10 0 -21 -3
-23 -7z"/>
<path d="M10351 3537 c-46 -23 -66 -63 -66 -128 1 -53 4 -63 31 -90 21 -21 44
-32 72 -36 52 -7 102 12 102 38 0 19 -2 19 -31 3 -35 -18 -89 -13 -109 11 -7
8 -16 30 -20 50 l-8 35 89 0 89 0 0 36 c0 72 -81 116 -149 81z m96 -43 c22
-30 10 -39 -55 -41 -70 -2 -80 11 -37 45 30 24 73 22 92 -4z"/>
<path d="M10603 3535 c-23 -10 -33 -21 -33 -36 0 -20 1 -21 24 -6 59 39 119
19 109 -35 -4 -21 -14 -27 -58 -37 -64 -14 -83 -28 -89 -62 -10 -61 60 -98
113 -60 24 17 31 19 38 8 18 -30 73 -30 73 -1 0 8 -9 14 -20 14 -19 0 -20 6
-17 96 2 90 1 97 -22 115 -27 22 -73 24 -118 4z m97 -156 c0 -24 -36 -58 -62
-59 -18 0 -48 25 -48 41 0 13 58 38 88 39 16 0 22 -6 22 -21z"/>
<path d="M10849 3548 c-1 -2 -3 -63 -4 -135 -3 -131 -3 -133 19 -133 21 0 22
4 22 90 0 80 3 92 24 115 13 14 34 25 47 25 16 0 23 6 23 20 0 13 -7 20 -19
20 -10 0 -30 -9 -44 -20 -14 -11 -28 -20 -31 -20 -2 0 -3 9 -1 20 3 14 -2 20
-16 20 -10 0 -20 -1 -20 -2z"/>
<path d="M11042 3525 c-50 -42 -30 -95 48 -130 45 -20 54 -36 36 -61 -18 -24
-51 -27 -86 -9 -29 15 -30 15 -30 -9 0 -16 7 -26 23 -30 64 -17 121 2 136 46
15 43 0 70 -58 101 -52 29 -64 53 -38 76 13 10 36 9 76 -4 14 -4 18 0 17 17
-1 20 -7 23 -47 26 -38 3 -51 -1 -77 -23z"/>
</g>
</svg>
