<svg xmlns="http://www.w3.org/2000/svg" xml:space="preserve" width="800" height="800" viewBox="0 0 512.723 512.723"><path d="M438.087 9.3a31.807 31.807 0 0 0-10.161-6.803c-16.242-6.827-35.009.831-41.827 17.052L256.468 325.966a94.048 94.048 0 0 0-13.996-1.046h-.204c-51.679.111-93.632 42.245-93.521 93.923.042 19.692-7.586 38.221-21.481 52.175-13.895 13.954-32.392 21.663-52.083 21.705-5.523.012-9.99 4.499-9.979 10.021.012 5.516 4.486 9.979 10 9.979h.022l167.445-.358c51.679-.111 93.632-42.244 93.521-93.923-.05-23.511-8.8-45.006-23.187-61.446L444.999 44.332c5.067-12.054 2.354-25.805-6.912-35.032zM316.192 418.486c.087 40.65-32.914 73.793-73.565 73.88l-109.636.234c21.817-17.22 35.82-43.913 35.756-73.799-.087-40.65 32.914-73.793 73.564-73.88h.161c40.576 0 73.633 32.969 73.72 73.565zM426.568 36.569 297.33 342.703a93.672 93.672 0 0 0-21.328-11.576L404.527 27.32c2.554-6.075 9.576-8.939 15.647-6.386a11.872 11.872 0 0 1 3.801 2.539 11.906 11.906 0 0 1 2.593 13.096z"/><path d="M198.368 392.174c-5.133-2.037-10.946.472-12.984 5.604a61.079 61.079 0 0 0-4.313 22.775c.012 5.516 4.486 9.978 10 9.978h.022c5.522-.012 9.99-4.499 9.978-10.022a41.172 41.172 0 0 1 2.902-15.352c2.037-5.132-.472-10.945-5.605-12.983zM242.462 359.033h-.135c-9.572.021-18.742 2.186-27.254 6.435-4.942 2.466-6.948 8.472-4.481 13.413s8.471 6.948 13.413 4.481c5.728-2.859 11.907-4.315 18.366-4.329h.091c11.021 0 21.389 4.281 29.202 12.06 7.834 7.801 12.162 18.185 12.185 29.241.012 5.516 4.486 9.979 10 9.979h.022c5.522-.012 9.99-4.499 9.979-10.021-.035-16.397-6.454-31.8-18.073-43.37-11.591-11.541-26.967-17.889-43.315-17.889z"/></svg>