<svg xmlns="http://www.w3.org/2000/svg" xml:space="preserve" width="256" height="256" fill="#00000" stroke="#00000" viewBox="0 0 503.9 503.9"><path d="M486.967 109.115V25.18c0-13.883-11.298-25.18-25.18-25.18H42.114c-13.883 0-25.18 11.298-25.18 25.18v83.934a8.39 8.39 0 0 0-8.393 8.393v75.541a8.39 8.39 0 0 0 8.393 8.393v16.787h58.754a8.39 8.39 0 0 1 8.393 8.393 8.39 8.39 0 0 1-8.393 8.393H16.934v16.787h41.967a8.39 8.39 0 0 1 8.393 8.393 8.39 8.39 0 0 1-8.393 8.393H17.782c3.903 19.129 20.858 33.574 41.119 33.574h83.834a34.619 34.619 0 0 1 26.372 12.162 34.637 34.637 0 0 1 7.865 27.959l-8.964 56.345c-5.531 35.001 9.652 70.748 38.685 91.06 13.539 9.476 29.394 14.21 45.257 14.21s31.727-4.734 45.257-14.21c29.033-20.312 44.217-56.06 38.685-91.069l-8.964-56.337a34.63 34.63 0 0 1 7.865-27.959 34.619 34.619 0 0 1 26.372-12.162h83.834c23.141 0 41.967-18.826 41.967-41.967v-58.754a8.39 8.39 0 0 0 8.393-8.393v-75.541a8.389 8.389 0 0 0-8.392-8.39zM168.016 72.704c.059.025.126.034.176.059 1.637.764 3.349 1.326 5.095 1.771.453.126.898.243 1.36.336 1.83.386 3.693.604 5.582.629.126 0 .252.042.378.042.269 0 .512-.076.772-.076.747-.017 1.486 0 2.233-.076.52-.05 1.007-.227 1.519-.302a29.443 29.443 0 0 0 2.719-.562 25.45 25.45 0 0 0 2.249-.697 29.265 29.265 0 0 0 3.66-1.536c.143-.076.285-.159.42-.235 9.35-4.919 15.805-14.621 15.805-25.894V16.787h251.803c4.625 0 8.393 3.76 8.393 8.393v83.934H168.016v-36.41zM33.721 25.18c0-4.633 3.769-8.393 8.393-8.393h8.393v50.361c0 13.203 7.73 24.542 18.843 30.023.218.109.42.243.646.344 1.284.604 2.636 1.058 4.004 1.486.831.277 1.645.579 2.501.781 1.041.243 2.124.353 3.198.495.873.117 1.704.361 2.594.403.378.017.739-.034 1.108-.025.235 0 .445.067.68.067.688 0 1.351-.092 2.031-.134.512-.034 1.032-.05 1.544-.109 1.091-.109 2.157-.302 3.215-.52.487-.101.99-.176 1.477-.302.89-.227 1.746-.52 2.602-.814.646-.218 1.309-.411 1.947-.671.495-.21.957-.47 1.444-.697.848-.403 1.712-.755 2.526-1.225v12.867H33.721V25.18zM251.95 453.246c-18.516 0-33.574-15.058-33.574-33.574s15.058-33.574 33.574-33.574 33.574 15.058 33.574 33.574-15.058 33.574-33.574 33.574zm226.623-268.59H25.327v-58.754h75.541v8.393c0 18.516 15.058 33.574 33.574 33.574s33.574-15.058 33.574-33.574v-8.393h310.557v58.754z"/><path d="M251.95 402.885c-9.258 0-16.787 7.529-16.787 16.787s7.529 16.787 16.787 16.787 16.787-7.529 16.787-16.787-7.529-16.787-16.787-16.787z"/></svg>